<?xml version="1.0" encoding="UTF-8"?><svg id="Layer_1" xmlns="http://www.w3.org/2000/svg" viewBox="0 0 980 486"><defs><style>.cls-1{fill:#009245;}</style></defs><path d="M193.55,231.9l-16.14-21.85h-29.04v21.85h-3.14v-51.45h32c8.94,0,19.09,2.77,19.09,14.85,0,10.6-7.56,14.02-15.4,14.66l16.14,21.95h-3.5ZM148.37,182.76v24.99h28.86c8.67,0,15.95-2.3,15.95-12.45s-7.28-12.54-15.95-12.54h-28.86Z"/><path d="M210.61,231.9v-46.29h2.95v46.29h-2.95Z"/><path d="M283.64,227.2c-6.73,3.78-16.14,5.62-24.62,5.62-18.44,0-32.27-8.76-32.27-23.88s13.65-24.07,32.27-24.07c9.68,0,18.16,2.3,24.62,5.72v2.4c-7.28-4.15-16.5-5.99-24.53-5.99-16.69,0-29.23,8.02-29.23,21.95s12.63,21.76,29.41,21.76c7.93,0,17.43-1.75,24.34-5.9v2.4Z"/><path d="M349.29,231.9v-22.68h-49.7v22.68h-2.95v-46.29h2.95v21.12h49.7v-21.12h2.95v46.29h-2.95Z"/><path d="M410.43,217.33h-36.33l-9.59,14.57h-3.23l30.98-47.03,30.98,47.03h-3.23l-9.59-14.57ZM375.67,214.94h33.19l-16.6-25.17-16.6,25.17Z"/><path d="M475.34,231.9l-13.74-18.9h-26.37v18.9h-2.95v-46.29h29.41c9.13,0,16.32,4.52,16.32,13.55s-5.53,12.91-13.09,13.74l13.83,18.99h-3.41ZM435.24,188.01v22.59h26.46c10.79,0,13.37-5.35,13.37-11.43,0-5.26-2.58-11.16-13.37-11.16h-26.46Z"/><path d="M492.13,231.9v-46.29h26.74c20.75,0,30.34,11.62,30.34,23.14s-9.59,23.14-30.34,23.14h-26.74ZM518.87,229.51c18.81,0,27.2-10.14,27.2-20.75s-8.39-20.75-27.2-20.75h-23.79v41.49h23.79Z"/><path d="M635.79,209.68v-2.3h22.04c0,1.01,0,2.4-.09,3.41-1.47,17.52-19.09,22.04-34.21,22.04-21.12,0-36.7-8.85-36.7-27.39,0-19.46,17.06-25.91,35.87-25.91,9.87,0,21.85,2.03,31.17,7.47v2.58c-7.56-5.07-20.56-7.47-31.35-7.47-16.41,0-32.55,5.16-32.55,23.33,0,17.15,14.38,24.71,33.38,24.71,15.31,0,31.72-4.79,31.72-20.47h-19.27Z"/><path d="M670.37,231.9v-46.29h2.95v43.98h39.46v2.3h-42.42Z"/><path d="M748.56,232.83c-19.36,0-33.1-9.13-33.1-23.88s13.74-24.07,33.1-24.07,33.01,9.31,33.01,24.07-13.74,23.88-33.01,23.88ZM748.56,187c-17.15,0-29.97,8.3-29.97,21.95s12.82,21.76,29.97,21.76,29.87-8.3,29.87-21.76-12.91-21.95-29.87-21.95Z"/><path d="M783.88,185.62h3.5l26.83,42.23,26.83-42.23h3.5l-30.34,47.21-30.34-47.21Z"/><path d="M853.59,231.9v-46.29h46.1v2.31h-43.15v18.72h36.24v2.31h-36.24v20.65h43.15v2.3h-46.1Z"/><path d="M956.03,231.9l-13.74-18.9h-26.37v18.9h-2.95v-46.29h29.41c9.13,0,16.32,4.52,16.32,13.55s-5.53,12.91-13.09,13.74l13.83,18.99h-3.41ZM915.93,188.01v22.59h26.46c10.79,0,13.37-5.35,13.37-11.43,0-5.26-2.58-11.16-13.37-11.16h-26.46Z"/><path d="M147.53,272.03v16.74h-2.26v-37.07h23.72c6.71,0,13.09,2.39,13.09,10.1s-6.38,10.23-13.09,10.23h-21.46ZM147.53,253.43v16.88h21.46c5.91,0,10.63-2.19,10.63-8.5s-4.72-8.37-10.63-8.37h-21.46Z"/><path d="M259.41,288.78v-19.27h-40v19.27h-2.26v-37.07h2.26v15.81h40v-15.81h2.26v37.07h-2.26Z"/><path d="M324.13,289.44c-14.48,0-26.18-6.71-26.18-19.2s11.69-19.2,26.18-19.2,26.24,6.71,26.24,19.2-11.83,19.2-26.24,19.2ZM324.13,252.97c-13.22,0-23.92,5.58-23.92,17.27s10.7,17.27,23.92,17.27,23.98-5.58,23.98-17.27-10.76-17.27-23.98-17.27Z"/><path d="M397.54,288.78v-35.41h-20v-1.66h42.12v1.66h-19.93v35.41h-2.19Z"/><path d="M472.95,289.44c-14.48,0-26.18-6.71-26.18-19.2s11.69-19.2,26.18-19.2,26.24,6.71,26.24,19.2-11.83,19.2-26.24,19.2ZM472.95,252.97c-13.22,0-23.92,5.58-23.92,17.27s10.7,17.27,23.92,17.27,23.98-5.58,23.98-17.27-10.76-17.27-23.98-17.27Z"/><path d="M567.16,272.76v-1.66h15.88c0,.73,0,1.73-.07,2.46-1.06,12.62-13.75,15.88-24.65,15.88-15.21,0-26.44-6.38-26.44-19.73,0-14.02,12.29-18.67,25.84-18.67,7.11,0,15.75,1.46,22.46,5.38v1.86c-5.45-3.65-14.82-5.38-22.59-5.38-11.83,0-23.45,3.72-23.45,16.81,0,12.36,10.36,17.81,24.05,17.81,11.03,0,22.86-3.45,22.86-14.75h-13.89Z"/><path d="M653.54,288.78l-11.63-15.75h-20.93v15.75h-2.26v-37.07h23.05c6.45,0,13.75,1.99,13.75,10.7,0,7.64-5.45,10.1-11.1,10.56l11.63,15.81h-2.53ZM620.98,253.36v18h20.8c6.25,0,11.49-1.66,11.49-8.97s-5.25-9.04-11.49-9.04h-20.8Z"/><path d="M723.36,276.22h-27.9l-8.24,12.56h-2.52l24.72-37.74,24.78,37.74h-2.59l-8.24-12.56ZM696.66,274.36h25.45l-12.69-19.4-12.76,19.4Z"/><path d="M769.47,272.03v16.74h-2.26v-37.07h23.72c6.71,0,13.09,2.39,13.09,10.1s-6.38,10.23-13.09,10.23h-21.46ZM769.47,253.43v16.88h21.46c5.91,0,10.63-2.19,10.63-8.5s-4.72-8.37-10.63-8.37h-21.46Z"/><path d="M881.36,288.78v-19.27h-40v19.27h-2.26v-37.07h2.26v15.81h40v-15.81h2.26v37.07h-2.26Z"/><path d="M937.63,288.78v-14.75l-20.8-22.32h2.79l19.07,20.26,19-20.26h2.92l-20.86,22.32v14.75h-2.13Z"/><path d="M58.24,209.2h.11l18.72-32.12c-2.51-.37-5.08-.57-7.7-.57-16.48,0-31.17,7.68-40.69,19.65l18.48,32.24,11.08-19.2Z"/><path d="M84.35,209.28h37.14c-6.74-16.86-22.06-29.37-40.56-32.12l-18.72,32.12h22.14Z"/><path d="M45.37,231.26l.04-.07-18.48-32.24c-7.05,8.87-11.27,20.09-11.27,32.31,0,6.81,1.31,13.31,3.69,19.27h37.14l-11.12-19.27Z"/><path d="M83.16,254.6h-.05l-18.63,32.14c2.47.36,4.99.55,7.56.55,16.48,0,31.17-7.68,40.69-19.65l-18.48-32.24-11.08,19.2Z"/><path class="cls-1" d="M122.69,212.68h-37.14l11.12,19.27-.04.07,18.48,32.24c7.05-8.87,11.27-20.09,11.27-32.31,0-6.81-1.31-13.31-3.69-19.27Z"/><path d="M57.3,253.58H20.16c6.76,16.91,22.14,29.43,40.71,32.14l18.63-32.14h-22.2Z"/></svg>